<svg xmlns="http://www.w3.org/2000/svg" viewBox="0 0 64 64">
  <defs>
    <linearGradient id="bg" x1="0%" y1="0%" x2="100%" y2="100%">
      <stop offset="0%" style="stop-color:#a855f7"/>
      <stop offset="100%" style="stop-color:#06b6d4"/>
    </linearGradient>
  </defs>
  <rect width="64" height="64" rx="14" fill="url(#bg)"/>
  <g transform="translate(14,14) scale(1.5)" fill="none" stroke="white" stroke-width="2" stroke-linecap="round" stroke-linejoin="round">
    <path d="M9.5 2a3.5 3.5 0 0 0-3.5 3.5v.006c0 .07 0 .27.038.494.037.223.1.505.21.784a3.5 3.5 0 0 0-2.714 3.416 3.46 3.46 0 0 0 .535 1.85A3.5 3.5 0 0 0 2 15.5a3.5 3.5 0 0 0 2.202 3.25 3.5 3.5 0 0 0 3.298 2.75h.5a.5.5 0 0 0 .5-.5V12"/>
    <path d="M14.5 2a3.5 3.5 0 0 1 3.5 3.5v.006c0 .07 0 .27-.038.494a2.8 2.8 0 0 1-.21.784 3.5 3.5 0 0 1 2.714 3.416 3.46 3.46 0 0 1-.535 1.85A3.5 3.5 0 0 1 22 15.5a3.5 3.5 0 0 1-2.202 3.25 3.5 3.5 0 0 1-3.298 2.75h-.5a.5.5 0 0 1-.5-.5V12"/>
    <path d="M8 12h8"/>
    <path d="M9 15.5a3.5 3.5 0 0 0 6 0"/>
  </g>
</svg>
